<?xml version="1.0" encoding="UTF-8"?>
<svg id="Calque_1" data-name="Calque 1" xmlns="http://www.w3.org/2000/svg" viewBox="0 0 176.66 174.63">
  <defs>
    <style>
      .cls-1, .cls-2 {
        fill: #004e56;
      }

      .cls-1, .cls-3 {
        stroke-width: 0px;
      }

      .cls-4 {
        font-size: 18.99px;
      }

      .cls-4, .cls-5 {
        fill: #1d1d1b;
        font-family: Mastro-DisplayRegular, Mastro;
      }

      .cls-6 {
        font-size: 8.68px;
      }

      .cls-6, .cls-2 {
        font-family: Futura-Medium, Futura;
        font-weight: 500;
      }

      .cls-6, .cls-3 {
        fill: #fff;
      }

      .cls-2 {
        font-size: 15.21px;
      }

      .cls-5 {
        font-size: 10.14px;
      }
    </style>
  </defs>
  <g>
    <text class="cls-2" transform="translate(-7015.5 407.01) rotate(71.09) scale(.77 1)"><tspan x="0" y="0">D</tspan></text>
    <text class="cls-2" transform="translate(-7012.37 415.9) rotate(66.03) scale(.77 1)"><tspan x="0" y="0">e</tspan></text>
    <text class="cls-2" transform="translate(-7009.36 422.61) rotate(61.21) scale(.77 1)"><tspan x="0" y="0">p</tspan></text>
    <text class="cls-2" transform="translate(-7005.5 429.53) rotate(56.16) scale(.77 1)"><tspan x="0" y="0">u</tspan></text>
    <text class="cls-2" transform="translate(-7001.52 435.34) rotate(52.47) scale(.77 1)"><tspan x="0" y="0">i</tspan></text>
    <text class="cls-2" transform="translate(-6999.41 438.1) rotate(49.28) scale(.77 1)"><tspan x="0" y="0">s</tspan></text>
    <text class="cls-2" transform="translate(-6995.87 442.17) rotate(45.65) scale(.77 1)"><tspan x="0" y="0"> </tspan></text>
    <text class="cls-2" transform="translate(-6992.76 445.41) rotate(40.68) scale(.77 1)"><tspan x="0" y="0">2</tspan></text>
    <text class="cls-2" transform="translate(-6986.28 450.89) rotate(33.54) scale(.77 1)"><tspan x="0" y="0">0</tspan></text>
    <text class="cls-2" transform="translate(-6979.06 455.57) rotate(25.79) scale(.77 1)"><tspan x="0" y="0">2</tspan></text>
    <text class="cls-2" transform="translate(-6971.18 459.26) rotate(17.5) scale(.77 1)"><tspan x="0" y="0">3</tspan></text>
  </g>
  <g>
    <text class="cls-6" transform="translate(-6774.77 294.92) rotate(71.11) scale(.77 1)"><tspan x="0" y="0">D</tspan></text>
    <text class="cls-6" transform="translate(-6772.98 299.99) rotate(66.04) scale(.77 1)"><tspan x="0" y="0">e</tspan></text>
    <text class="cls-6" transform="translate(-6771.27 303.81) rotate(61.25) scale(.77 1)"><tspan x="0" y="0">p</tspan></text>
    <text class="cls-6" transform="translate(-6769.05 307.79) rotate(56.16) scale(.77 1)"><tspan x="0" y="0">u</tspan></text>
    <text class="cls-6" transform="translate(-6766.78 311.11) rotate(52.46) scale(.77 1)"><tspan x="0" y="0">i</tspan></text>
    <text class="cls-6" transform="translate(-6765.58 312.68) rotate(49.29) scale(.77 1)"><tspan x="0" y="0">s</tspan></text>
    <text class="cls-6" transform="translate(-6763.56 315) rotate(45.66) scale(.77 1)"><tspan x="0" y="0"> </tspan></text>
    <text class="cls-6" transform="translate(-6761.77 316.86) rotate(40.66) scale(.77 1)"><tspan x="0" y="0">2</tspan></text>
    <text class="cls-6" transform="translate(-6758.06 320) rotate(33.49) scale(.77 1)"><tspan x="0" y="0">0</tspan></text>
    <text class="cls-6" transform="translate(-6753.94 322.67) rotate(25.74) scale(.77 1)"><tspan x="0" y="0">2</tspan></text>
    <text class="cls-6" transform="translate(-6749.44 324.77) rotate(17.44) scale(.77 1)"><tspan x="0" y="0">3</tspan></text>
  </g>
  <g>
    <text class="cls-2" transform="translate(-1597.97 -1715.24) rotate(71.09) scale(.77 1)"><tspan x="0" y="0">D</tspan></text>
    <text class="cls-2" transform="translate(-1594.84 -1706.35) rotate(66.03) scale(.77 1)"><tspan x="0" y="0">e</tspan></text>
    <text class="cls-2" transform="translate(-1591.83 -1699.64) rotate(61.21) scale(.77 1)"><tspan x="0" y="0">p</tspan></text>
    <text class="cls-2" transform="translate(-1587.97 -1692.71) rotate(56.16) scale(.77 1)"><tspan x="0" y="0">u</tspan></text>
    <text class="cls-2" transform="translate(-1583.99 -1686.91) rotate(52.47) scale(.77 1)"><tspan x="0" y="0">i</tspan></text>
    <text class="cls-2" transform="translate(-1581.88 -1684.15) rotate(49.28) scale(.77 1)"><tspan x="0" y="0">s</tspan></text>
    <text class="cls-2" transform="translate(-1578.33 -1680.08) rotate(45.65) scale(.77 1)"><tspan x="0" y="0"> </tspan></text>
    <text class="cls-2" transform="translate(-1575.23 -1676.84) rotate(40.68) scale(.77 1)"><tspan x="0" y="0">2</tspan></text>
    <text class="cls-2" transform="translate(-1568.75 -1671.36) rotate(33.54) scale(.77 1)"><tspan x="0" y="0">0</tspan></text>
    <text class="cls-2" transform="translate(-1561.53 -1666.68) rotate(25.79) scale(.77 1)"><tspan x="0" y="0">2</tspan></text>
    <text class="cls-2" transform="translate(-1553.65 -1662.98) rotate(17.5) scale(.77 1)"><tspan x="0" y="0">3</tspan></text>
  </g>
  <text class="cls-5" transform="translate(-317.46 -1559.81) rotate(-23.31)"><tspan x="0" y="0">U</tspan></text>
  <text class="cls-5" transform="translate(-311.15 -1562.55) rotate(-15.57)"><tspan x="0" y="0">N</tspan></text>
  <text class="cls-5" transform="translate(-304.43 -1564.32) rotate(-10.35)"><tspan x="0" y="0"> </tspan></text>
  <text class="cls-5" transform="translate(-302.15 -1564.82) rotate(-5.66)"><tspan x="0" y="0">C</tspan></text>
  <text class="cls-5" transform="translate(-296.29 -1565.44) rotate(1.44)"><tspan x="0" y="0">O</tspan></text>
  <text class="cls-5" transform="translate(-289.58 -1565.3) rotate(8.98)"><tspan x="0" y="0">N</tspan></text>
  <text class="cls-5" transform="translate(-282.83 -1564.21) rotate(16.03)"><tspan x="0" y="0">C</tspan></text>
  <text class="cls-5" transform="translate(-277.14 -1562.59) rotate(22.54)"><tspan x="0" y="0">E</tspan></text>
  <text class="cls-5" transform="translate(-271.81 -1560.43) rotate(29.62)"><tspan x="0" y="0">N</tspan></text>
  <text class="cls-5" transform="translate(-265.81 -1557.01) rotate(36.97)"><tspan x="0" y="0">T</tspan></text>
  <text class="cls-5" transform="translate(-260.89 -1553.34) rotate(44.12)"><tspan x="0" y="0">R</tspan></text>
  <text class="cls-5" transform="translate(-256.2 -1548.77) rotate(51.04)"><tspan x="0" y="0">É</tspan></text>
  <text class="cls-5" transform="translate(-252.59 -1544.21) rotate(55.56)"><tspan x="0" y="0"> </tspan></text>
  <text class="cls-5" transform="translate(-251.17 -1542.34) rotate(60.69)"><tspan x="0" y="0">D</tspan></text>
  <text class="cls-5" transform="translate(-247.86 -1536.4) rotate(67.64)"><tspan x="0" y="0">E</tspan></text>
  <text class="cls-5" transform="translate(-245.7 -1530.98) rotate(72.26)"><tspan x="0" y="0"> </tspan></text>
  <text class="cls-5" transform="translate(-244.92 -1528.8) rotate(76.92)"><tspan x="0" y="0">C</tspan></text>
  <text class="cls-5" transform="translate(-243.55 -1523.05) rotate(83.95)"><tspan x="0" y="0">R</tspan></text>
  <text class="cls-5" transform="translate(-242.87 -1516.54) rotate(90.84)"><tspan x="0" y="0">É</tspan></text>
  <text class="cls-5" transform="translate(-242.91 -1510.78) rotate(97.7)"><tspan x="0" y="0">A</tspan></text>
  <text class="cls-5" transform="translate(-243.63 -1505.14) rotate(103.81)"><tspan x="0" y="0">T</tspan></text>
  <text class="cls-5" transform="translate(-245.18 -1499.12) rotate(109.07)"><tspan x="0" y="0">I</tspan></text>
  <text class="cls-5" transform="translate(-246.15 -1496.04) rotate(114.47)"><tspan x="0" y="0">V</tspan></text>
  <text class="cls-5" transform="translate(-248.88 -1490.21) rotate(119.88)"><tspan x="0" y="0">I</tspan></text>
  <text class="cls-5" transform="translate(-250.41 -1487.4) rotate(125.16)"><tspan x="0" y="0">T</tspan></text>
  <text class="cls-5" transform="translate(-253.95 -1482.36) rotate(131.88)"><tspan x="0" y="0">É</tspan></text>
  <text class="cls-4" transform="translate(-978.57 -1581.02) rotate(-77.78)"><tspan x="0" y="0">U</tspan></text>
  <text class="cls-4" transform="translate(-975.85 -1593.68) rotate(-69.98)"><tspan x="0" y="0">N</tspan></text>
  <text class="cls-4" transform="translate(-971.23 -1605.84) rotate(-64.75)"><tspan x="0" y="0"> </tspan></text>
  <text class="cls-4" transform="translate(-969.48 -1609.89) rotate(-60.06)"><tspan x="0" y="0">C</tspan></text>
  <text class="cls-4" transform="translate(-964.04 -1619.49) rotate(-52.95)"><tspan x="0" y="0">O</tspan></text>
  <text class="cls-4" transform="translate(-956.5 -1629.56) rotate(-45.41)"><tspan x="0" y="0">N</tspan></text>
  <text class="cls-4" transform="translate(-947.48 -1638.66) rotate(-38.33)"><tspan x="0" y="0">C</tspan></text>
  <text class="cls-4" transform="translate(-938.77 -1645.56) rotate(-31.78)"><tspan x="0" y="0">E</tspan></text>
  <text class="cls-4" transform="translate(-929.65 -1651.32) rotate(-24.66)"><tspan x="0" y="0">N</tspan></text>
  <text class="cls-4" transform="translate(-917.89 -1656.7) rotate(-17.28)"><tspan x="0" y="0">T</tspan></text>
  <text class="cls-4" transform="translate(-906.9 -1660.17) rotate(-10.1)"><tspan x="0" y="0">R</tspan></text>
  <text class="cls-4" transform="translate(-894.77 -1662.3) rotate(-3.2)"><tspan x="0" y="0">É</tspan></text>
  <text class="cls-4" transform="translate(-883.87 -1662.79) rotate(1.31)"><tspan x="0" y="0"> </tspan></text>
  <text class="cls-4" transform="translate(-879.5 -1662.9) rotate(6.48)"><tspan x="0" y="0">D</tspan></text>
  <text class="cls-4" transform="translate(-866.85 -1661.43) rotate(13.49)"><tspan x="0" y="0">E</tspan></text>
  <text class="cls-4" transform="translate(-856.25 -1658.77) rotate(18.12)"><tspan x="0" y="0"> </tspan></text>
  <text class="cls-4" transform="translate(-852.05 -1657.55) rotate(22.82)"><tspan x="0" y="0">C</tspan></text>
  <text class="cls-4" transform="translate(-841.82 -1653.31) rotate(29.83)"><tspan x="0" y="0">R</tspan></text>
  <text class="cls-4" transform="translate(-831.16 -1647.17) rotate(36.75)"><tspan x="0" y="0">É</tspan></text>
  <text class="cls-4" transform="translate(-822.46 -1640.76) rotate(43.63)"><tspan x="0" y="0">A</tspan></text>
  <text class="cls-4" transform="translate(-814.71 -1633.49) rotate(49.74)"><tspan x="0" y="0">T</tspan></text>
  <text class="cls-4" transform="translate(-807.28 -1624.53) rotate(55.01)"><tspan x="0" y="0">I</tspan></text>
  <text class="cls-4" transform="translate(-803.68 -1619.66) rotate(60.45)"><tspan x="0" y="0">V</tspan></text>
  <text class="cls-4" transform="translate(-797.83 -1609.1) rotate(65.89)"><tspan x="0" y="0">I</tspan></text>
  <text class="cls-4" transform="translate(-795.24 -1603.66) rotate(71.21)"><tspan x="0" y="0">T</tspan></text>
  <text class="cls-4" transform="translate(-791.53 -1592.75) rotate(77.94)"><tspan x="0" y="0">É</tspan></text>
  <text class="cls-4" transform="translate(-789.37 -1582.03) rotate(82.55)"><tspan x="0" y="0"> </tspan></text>
  <text class="cls-4" transform="translate(-788.78 -1577.58) rotate(85.24)"><tspan x="0" y="0"> </tspan></text>
  <text class="cls-4" transform="translate(-788.41 -1573.13) rotate(87.89)"><tspan x="0" y="0"> </tspan></text>
  <text class="cls-4" transform="translate(-788.22 -1568.66) rotate(90.93)"><tspan x="0" y="0"> </tspan></text>
  <text class="cls-4" transform="translate(-788.28 -1564.14) rotate(93.2)"><tspan x="0" y="0"> </tspan></text>
  <text class="cls-4" transform="translate(-788.52 -1559.66) rotate(95.87)"><tspan x="0" y="0"> </tspan></text>
  <text class="cls-4" transform="translate(-788.76 -1555.3) rotate(101.09)"><tspan x="0" y="0">U</tspan></text>
  <text class="cls-4" transform="translate(-791.21 -1542.63) rotate(108.87)"><tspan x="0" y="0">N</tspan></text>
  <text class="cls-4" transform="translate(-795.61 -1530.33) rotate(114.13)"><tspan x="0" y="0"> </tspan></text>
  <text class="cls-4" transform="translate(-797.27 -1526.27) rotate(118.82)"><tspan x="0" y="0">C</tspan></text>
  <text class="cls-4" transform="translate(-802.53 -1516.56) rotate(125.93)"><tspan x="0" y="0">O</tspan></text>
  <text class="cls-4" transform="translate(-809.9 -1506.32) rotate(133.51)"><tspan x="0" y="0">N</tspan></text>
  <text class="cls-4" transform="translate(-818.71 -1497.07) rotate(140.55)"><tspan x="0" y="0">C</tspan></text>
  <text class="cls-4" transform="translate(-827.28 -1490) rotate(147.1)"><tspan x="0" y="0">E</tspan></text>
  <text class="cls-4" transform="translate(-836.3 -1484.06) rotate(154.23)"><tspan x="0" y="0">N</tspan></text>
  <text class="cls-4" transform="translate(-847.94 -1478.46) rotate(161.59)"><tspan x="0" y="0">T</tspan></text>
  <text class="cls-4" transform="translate(-858.87 -1474.77) rotate(168.77)"><tspan x="0" y="0">R</tspan></text>
  <text class="cls-4" transform="translate(-870.94 -1472.4) rotate(175.69)"><tspan x="0" y="0">É</tspan></text>
  <text class="cls-4" transform="translate(-881.82 -1471.67) rotate(-179.07)"><tspan x="0" y="0"> </tspan></text>
  <text class="cls-4" transform="translate(-886.18 -1471.51) rotate(-174.65)"><tspan x="0" y="0">D</tspan></text>
  <text class="cls-4" transform="translate(-898.89 -1472.73) rotate(-167.63)"><tspan x="0" y="0">E</tspan></text>
  <text class="cls-4" transform="translate(-909.52 -1475.18) rotate(-163.01)"><tspan x="0" y="0"> </tspan></text>
  <text class="cls-4" transform="translate(-913.76 -1476.32) rotate(-158.3)"><tspan x="0" y="0">C</tspan></text>
  <text class="cls-4" transform="translate(-924.08 -1480.37) rotate(-151.27)"><tspan x="0" y="0">R</tspan></text>
  <text class="cls-4" transform="translate(-934.84 -1486.29) rotate(-144.37)"><tspan x="0" y="0">É</tspan></text>
  <text class="cls-4" transform="translate(-943.67 -1492.53) rotate(-137.48)"><tspan x="0" y="0">A</tspan></text>
  <text class="cls-4" transform="translate(-951.56 -1499.65) rotate(-131.37)"><tspan x="0" y="0">T</tspan></text>
  <text class="cls-4" transform="translate(-959.16 -1508.46) rotate(-126.11)"><tspan x="0" y="0">I</tspan></text>
  <text class="cls-4" transform="translate(-962.85 -1513.25) rotate(-120.68)"><tspan x="0" y="0">V</tspan></text>
  <text class="cls-4" transform="translate(-968.89 -1523.69) rotate(-115.25)"><tspan x="0" y="0">I</tspan></text>
  <text class="cls-4" transform="translate(-971.6 -1529.09) rotate(-109.91)"><tspan x="0" y="0">T</tspan></text>
  <text class="cls-4" transform="translate(-975.53 -1539.93) rotate(-103.18)"><tspan x="0" y="0">É</tspan></text>
  <g>
    <circle class="cls-1" cx="88.33" cy="87.31" r="83.87"/>
    <g>
      <g>
        <path class="cls-3" d="M144.69,134.57c-6.5.32-13.44.58-19.15-1.26-4.17-1.35-7.15-3.68-9.49-6.11-6.11-6.36-11.18-12.98-16.34-19.62-3.33-4.19-9.11-11.98-12.5-16.06-4.33-4.96-10.83-8.97-18.99-11.56-1.87-.6-4.29-.99-6.06-1.22,1.97-.26,3.01-.22,4.6-.14,7.42.36,14.02,2.82,19.15,5.96,6.43,3.93,10.52,8.94,14.41,13.88,6.24,7.91,12.26,15.89,18.05,23.91,1.88,2.6,3.78,5.25,6.86,7.42,4.88,3.43,12.3,4.11,19.44,4.81Z"/>
        <g>
          <path class="cls-3" d="M127.59,87.93s-.03,44.36-.03,43.95c.74,0,0,0,.97,0v-43.96c1.66-.81-2.68-.87-.95,0Z"/>
          <path class="cls-3" d="M125.01,88.02h6.23l6.15-.53c.08-.14.08-.29.08-.43h-18.77c0,.14,0,.29-.08.43l6.39.53Z"/>
        </g>
        <g>
          <path class="cls-3" d="M88.95,131.02s.03-44.36.03-43.95c-.74,0,0,0-.97,0v43.96c-1.66.81,2.68.87.95,0Z"/>
          <path class="cls-3" d="M91.53,130.93h-6.23l-6.15.53c-.08.14-.08.29-.08.43h18.77c0-.14,0-.29.08-.43l-6.39-.53Z"/>
        </g>
      </g>
      <g>
        <path class="cls-3" d="M31.96,134.57c6.5.32,13.44.58,19.15-1.26,4.17-1.35,7.15-3.68,9.49-6.11,6.11-6.36,11.18-12.98,16.34-19.62,3.33-4.19,9.11-11.98,12.5-16.06,4.33-4.96,10.83-8.97,18.99-11.56,1.87-.6,4.29-.99,6.06-1.22-1.97-.26-3.01-.22-4.6-.14-7.42.36-14.02,2.82-19.15,5.96-6.43,3.93-10.52,8.94-14.41,13.88-6.24,7.91-12.26,15.89-18.05,23.91-1.88,2.6-3.78,5.25-6.86,7.42-4.88,3.43-12.3,4.11-19.44,4.81Z"/>
        <g>
          <path class="cls-3" d="M49.07,87.93s.03,44.36.03,43.95c-.74,0,0,0-.97,0v-43.96c-1.66-.81,2.68-.87.95,0Z"/>
          <path class="cls-3" d="M51.65,88.02h-6.23l-6.15-.53c-.08-.14-.08-.29-.08-.43h18.77c0,.14,0,.29.08.43l-6.39.53Z"/>
        </g>
        <g>
          <path class="cls-3" d="M87.71,131.02s-.03-44.36-.03-43.95c.74,0,0,0,.97,0v43.96c1.66.81-2.68.87-.95,0Z"/>
          <path class="cls-3" d="M85.13,130.93h6.23l6.15.53c.08.14.08.29.08.43h-18.77c0-.14,0-.29-.08-.43l6.39-.53Z"/>
        </g>
      </g>
      <g>
        <path class="cls-3" d="M144.69,40.05c-6.5-.32-13.44-.58-19.15,1.26-4.17,1.35-7.15,3.68-9.49,6.11-6.11,6.36-11.18,12.98-16.34,19.62-3.33,4.19-9.11,11.98-12.5,16.06-4.33,4.96-10.83,8.97-18.99,11.56-1.87.6-4.29.99-6.06,1.22,1.97.26,3.01.22,4.6.14,7.42-.36,14.02-2.82,19.15-5.96,6.43-3.93,10.52-8.94,14.41-13.88,6.24-7.91,12.26-15.89,18.05-23.91,1.88-2.6,3.78-5.25,6.86-7.42,4.88-3.43,12.3-4.11,19.44-4.81Z"/>
        <g>
          <path class="cls-3" d="M127.59,86.7s-.03-44.36-.03-43.95c.74,0,0,0,.97,0v43.96c1.66.81-2.68.87-.95,0Z"/>
          <path class="cls-3" d="M125.01,86.61h6.23l6.15.53c.08.14.08.29.08.43h-18.77c0-.14,0-.29-.08-.43l6.39-.53Z"/>
        </g>
        <g>
          <path class="cls-3" d="M88.95,43.61s.03,44.36.03,43.95c-.74,0,0,0-.97,0v-43.96c-1.66-.81,2.68-.87.95,0Z"/>
          <path class="cls-3" d="M91.53,43.7h-6.23l-6.15-.53c-.08-.14-.08-.29-.08-.43h18.77c0,.14,0,.29.08.43l-6.39.53Z"/>
        </g>
      </g>
      <g>
        <path class="cls-3" d="M31.96,40.05c6.5-.32,13.44-.58,19.15,1.26,4.17,1.35,7.15,3.68,9.49,6.11,6.11,6.36,11.18,12.98,16.34,19.62,3.33,4.19,9.11,11.98,12.5,16.06,4.33,4.96,10.83,8.97,18.99,11.56,1.87.6,4.29.99,6.06,1.22-1.97.26-3.01.22-4.6.14-7.42-.36-14.02-2.82-19.15-5.96-6.43-3.93-10.52-8.94-14.41-13.88-6.24-7.91-12.26-15.89-18.05-23.91-1.88-2.6-3.78-5.25-6.86-7.42-4.88-3.43-12.3-4.11-19.44-4.81Z"/>
        <g>
          <path class="cls-3" d="M49.07,86.7s.03-44.36.03-43.95c-.74,0,0,0-.97,0v43.96c-1.66.81,2.68.87.95,0Z"/>
          <path class="cls-3" d="M51.65,86.61h-6.23l-6.15.53c-.08.14-.08.29-.08.43h18.77c0-.14,0-.29.08-.43l-6.39-.53Z"/>
        </g>
        <g>
          <path class="cls-3" d="M87.71,43.61s-.03,44.36-.03,43.95c.74,0,0,0,.97,0v-43.96c1.66-.81-2.68-.87-.95,0Z"/>
          <path class="cls-3" d="M85.13,43.7h6.23l6.15-.53c.08-.14.08-.29.08-.43h-18.77c0,.14,0,.29-.08.43l6.39.53Z"/>
        </g>
      </g>
    </g>
  </g>
</svg>