<?xml version="1.0" encoding="UTF-8"?>
<svg id="Calque_1" data-name="Calque 1" xmlns="http://www.w3.org/2000/svg" viewBox="0 0 297.23 140.11">
  <defs>
    <style>
      .cls-1 {
        stroke-width: 0px;
      }

      .cls-1, .cls-2, .cls-3 {
        fill: #004e56;
      }

      .cls-4 {
        font-size: 18.99px;
      }

      .cls-4, .cls-5 {
        fill: #1d1d1b;
        font-family: Mastro-DisplayRegular, Mastro;
      }

      .cls-6 {
        fill: #fff;
        font-size: 8.68px;
      }

      .cls-6, .cls-3 {
        font-family: Futura-Medium, Futura;
        font-weight: 500;
      }

      .cls-2 {
        stroke: #004e56;
        stroke-miterlimit: 10;
        stroke-width: .5px;
      }

      .cls-3 {
        font-size: 15.21px;
      }

      .cls-5 {
        font-size: 10.14px;
      }
    </style>
  </defs>
  <g>
    <text class="cls-3" transform="translate(-6824.94 194.25) rotate(71.09) scale(.77 1)"><tspan x="0" y="0">D</tspan></text>
    <text class="cls-3" transform="translate(-6821.81 203.13) rotate(66.03) scale(.77 1)"><tspan x="0" y="0">e</tspan></text>
    <text class="cls-3" transform="translate(-6818.8 209.84) rotate(61.21) scale(.77 1)"><tspan x="0" y="0">p</tspan></text>
    <text class="cls-3" transform="translate(-6814.94 216.77) rotate(56.16) scale(.77 1)"><tspan x="0" y="0">u</tspan></text>
    <text class="cls-3" transform="translate(-6810.95 222.57) rotate(52.47) scale(.77 1)"><tspan x="0" y="0">i</tspan></text>
    <text class="cls-3" transform="translate(-6808.85 225.33) rotate(49.28) scale(.77 1)"><tspan x="0" y="0">s</tspan></text>
    <text class="cls-3" transform="translate(-6805.3 229.4) rotate(45.65) scale(.77 1)"><tspan x="0" y="0"> </tspan></text>
    <text class="cls-3" transform="translate(-6802.19 232.64) rotate(40.68) scale(.77 1)"><tspan x="0" y="0">2</tspan></text>
    <text class="cls-3" transform="translate(-6795.71 238.12) rotate(33.54) scale(.77 1)"><tspan x="0" y="0">0</tspan></text>
    <text class="cls-3" transform="translate(-6788.49 242.8) rotate(25.79) scale(.77 1)"><tspan x="0" y="0">2</tspan></text>
    <text class="cls-3" transform="translate(-6780.62 246.5) rotate(17.5) scale(.77 1)"><tspan x="0" y="0">3</tspan></text>
  </g>
  <g>
    <text class="cls-6" transform="translate(-6584.2 82.16) rotate(71.11) scale(.77 1)"><tspan x="0" y="0">D</tspan></text>
    <text class="cls-6" transform="translate(-6582.42 87.23) rotate(66.04) scale(.77 1)"><tspan x="0" y="0">e</tspan></text>
    <text class="cls-6" transform="translate(-6580.71 91.04) rotate(61.25) scale(.77 1)"><tspan x="0" y="0">p</tspan></text>
    <text class="cls-6" transform="translate(-6578.49 95.02) rotate(56.16) scale(.77 1)"><tspan x="0" y="0">u</tspan></text>
    <text class="cls-6" transform="translate(-6576.21 98.34) rotate(52.46) scale(.77 1)"><tspan x="0" y="0">i</tspan></text>
    <text class="cls-6" transform="translate(-6575.01 99.91) rotate(49.29) scale(.77 1)"><tspan x="0" y="0">s</tspan></text>
    <text class="cls-6" transform="translate(-6572.99 102.23) rotate(45.66) scale(.77 1)"><tspan x="0" y="0"> </tspan></text>
    <text class="cls-6" transform="translate(-6571.2 104.09) rotate(40.66) scale(.77 1)"><tspan x="0" y="0">2</tspan></text>
    <text class="cls-6" transform="translate(-6567.49 107.23) rotate(33.49) scale(.77 1)"><tspan x="0" y="0">0</tspan></text>
    <text class="cls-6" transform="translate(-6563.37 109.9) rotate(25.74) scale(.77 1)"><tspan x="0" y="0">2</tspan></text>
    <text class="cls-6" transform="translate(-6558.88 112) rotate(17.44) scale(.77 1)"><tspan x="0" y="0">3</tspan></text>
  </g>
  <g>
    <text class="cls-3" transform="translate(-1407.4 -1928) rotate(71.09) scale(.77 1)"><tspan x="0" y="0">D</tspan></text>
    <text class="cls-3" transform="translate(-1404.28 -1919.12) rotate(66.03) scale(.77 1)"><tspan x="0" y="0">e</tspan></text>
    <text class="cls-3" transform="translate(-1401.27 -1912.41) rotate(61.21) scale(.77 1)"><tspan x="0" y="0">p</tspan></text>
    <text class="cls-3" transform="translate(-1397.4 -1905.48) rotate(56.16) scale(.77 1)"><tspan x="0" y="0">u</tspan></text>
    <text class="cls-3" transform="translate(-1393.42 -1899.68) rotate(52.47) scale(.77 1)"><tspan x="0" y="0">i</tspan></text>
    <text class="cls-3" transform="translate(-1391.32 -1896.92) rotate(49.28) scale(.77 1)"><tspan x="0" y="0">s</tspan></text>
    <text class="cls-3" transform="translate(-1387.77 -1892.85) rotate(45.65) scale(.77 1)"><tspan x="0" y="0"> </tspan></text>
    <text class="cls-3" transform="translate(-1384.66 -1889.61) rotate(40.68) scale(.77 1)"><tspan x="0" y="0">2</tspan></text>
    <text class="cls-3" transform="translate(-1378.18 -1884.13) rotate(33.54) scale(.77 1)"><tspan x="0" y="0">0</tspan></text>
    <text class="cls-3" transform="translate(-1370.96 -1879.45) rotate(25.79) scale(.77 1)"><tspan x="0" y="0">2</tspan></text>
    <text class="cls-3" transform="translate(-1363.09 -1875.75) rotate(17.5) scale(.77 1)"><tspan x="0" y="0">3</tspan></text>
  </g>
  <text class="cls-5" transform="translate(-126.89 -1772.58) rotate(-23.31)"><tspan x="0" y="0">U</tspan></text>
  <text class="cls-5" transform="translate(-120.58 -1775.32) rotate(-15.57)"><tspan x="0" y="0">N</tspan></text>
  <text class="cls-5" transform="translate(-113.87 -1777.09) rotate(-10.35)"><tspan x="0" y="0"> </tspan></text>
  <text class="cls-5" transform="translate(-111.58 -1777.59) rotate(-5.66)"><tspan x="0" y="0">C</tspan></text>
  <text class="cls-5" transform="translate(-105.73 -1778.21) rotate(1.44)"><tspan x="0" y="0">O</tspan></text>
  <text class="cls-5" transform="translate(-99.01 -1778.07) rotate(8.98)"><tspan x="0" y="0">N</tspan></text>
  <text class="cls-5" transform="translate(-92.26 -1776.98) rotate(16.03)"><tspan x="0" y="0">C</tspan></text>
  <text class="cls-5" transform="translate(-86.58 -1775.36) rotate(22.54)"><tspan x="0" y="0">E</tspan></text>
  <text class="cls-5" transform="translate(-81.25 -1773.2) rotate(29.62)"><tspan x="0" y="0">N</tspan></text>
  <text class="cls-5" transform="translate(-75.25 -1769.78) rotate(36.97)"><tspan x="0" y="0">T</tspan></text>
  <text class="cls-5" transform="translate(-70.33 -1766.11) rotate(44.12)"><tspan x="0" y="0">R</tspan></text>
  <text class="cls-5" transform="translate(-65.63 -1761.53) rotate(51.04)"><tspan x="0" y="0">É</tspan></text>
  <text class="cls-5" transform="translate(-62.02 -1756.97) rotate(55.56)"><tspan x="0" y="0"> </tspan></text>
  <text class="cls-5" transform="translate(-60.61 -1755.1) rotate(60.69)"><tspan x="0" y="0">D</tspan></text>
  <text class="cls-5" transform="translate(-57.29 -1749.17) rotate(67.64)"><tspan x="0" y="0">E</tspan></text>
  <text class="cls-5" transform="translate(-55.13 -1743.75) rotate(72.26)"><tspan x="0" y="0"> </tspan></text>
  <text class="cls-5" transform="translate(-54.35 -1741.57) rotate(76.92)"><tspan x="0" y="0">C</tspan></text>
  <text class="cls-5" transform="translate(-52.98 -1735.81) rotate(83.95)"><tspan x="0" y="0">R</tspan></text>
  <text class="cls-5" transform="translate(-52.3 -1729.31) rotate(90.84)"><tspan x="0" y="0">É</tspan></text>
  <text class="cls-5" transform="translate(-52.35 -1723.55) rotate(97.7)"><tspan x="0" y="0">A</tspan></text>
  <text class="cls-5" transform="translate(-53.07 -1717.91) rotate(103.81)"><tspan x="0" y="0">T</tspan></text>
  <text class="cls-5" transform="translate(-54.61 -1711.89) rotate(109.07)"><tspan x="0" y="0">I</tspan></text>
  <text class="cls-5" transform="translate(-55.59 -1708.81) rotate(114.47)"><tspan x="0" y="0">V</tspan></text>
  <text class="cls-5" transform="translate(-58.32 -1702.98) rotate(119.88)"><tspan x="0" y="0">I</tspan></text>
  <text class="cls-5" transform="translate(-59.84 -1700.17) rotate(125.16)"><tspan x="0" y="0">T</tspan></text>
  <text class="cls-5" transform="translate(-63.39 -1695.13) rotate(131.88)"><tspan x="0" y="0">É</tspan></text>
  <text class="cls-4" transform="translate(-788 -1793.78) rotate(-77.78)"><tspan x="0" y="0">U</tspan></text>
  <text class="cls-4" transform="translate(-785.28 -1806.45) rotate(-69.98)"><tspan x="0" y="0">N</tspan></text>
  <text class="cls-4" transform="translate(-780.66 -1818.6) rotate(-64.75)"><tspan x="0" y="0"> </tspan></text>
  <text class="cls-4" transform="translate(-778.92 -1822.65) rotate(-60.06)"><tspan x="0" y="0">C</tspan></text>
  <text class="cls-4" transform="translate(-773.47 -1832.26) rotate(-52.95)"><tspan x="0" y="0">O</tspan></text>
  <text class="cls-4" transform="translate(-765.93 -1842.32) rotate(-45.41)"><tspan x="0" y="0">N</tspan></text>
  <text class="cls-4" transform="translate(-756.92 -1851.43) rotate(-38.33)"><tspan x="0" y="0">C</tspan></text>
  <text class="cls-4" transform="translate(-748.21 -1858.33) rotate(-31.78)"><tspan x="0" y="0">E</tspan></text>
  <text class="cls-4" transform="translate(-739.09 -1864.09) rotate(-24.66)"><tspan x="0" y="0">N</tspan></text>
  <text class="cls-4" transform="translate(-727.32 -1869.47) rotate(-17.28)"><tspan x="0" y="0">T</tspan></text>
  <text class="cls-4" transform="translate(-716.33 -1872.94) rotate(-10.1)"><tspan x="0" y="0">R</tspan></text>
  <text class="cls-4" transform="translate(-704.21 -1875.07) rotate(-3.2)"><tspan x="0" y="0">É</tspan></text>
  <text class="cls-4" transform="translate(-693.3 -1875.56) rotate(1.31)"><tspan x="0" y="0"> </tspan></text>
  <text class="cls-4" transform="translate(-688.93 -1875.67) rotate(6.48)"><tspan x="0" y="0">D</tspan></text>
  <text class="cls-4" transform="translate(-676.28 -1874.2) rotate(13.49)"><tspan x="0" y="0">E</tspan></text>
  <text class="cls-4" transform="translate(-665.69 -1871.53) rotate(18.12)"><tspan x="0" y="0"> </tspan></text>
  <text class="cls-4" transform="translate(-661.48 -1870.32) rotate(22.82)"><tspan x="0" y="0">C</tspan></text>
  <text class="cls-4" transform="translate(-651.26 -1866.08) rotate(29.83)"><tspan x="0" y="0">R</tspan></text>
  <text class="cls-4" transform="translate(-640.6 -1859.94) rotate(36.75)"><tspan x="0" y="0">É</tspan></text>
  <text class="cls-4" transform="translate(-631.89 -1853.52) rotate(43.63)"><tspan x="0" y="0">A</tspan></text>
  <text class="cls-4" transform="translate(-624.14 -1846.25) rotate(49.74)"><tspan x="0" y="0">T</tspan></text>
  <text class="cls-4" transform="translate(-616.71 -1837.3) rotate(55.01)"><tspan x="0" y="0">I</tspan></text>
  <text class="cls-4" transform="translate(-613.11 -1832.43) rotate(60.45)"><tspan x="0" y="0">V</tspan></text>
  <text class="cls-4" transform="translate(-607.27 -1821.86) rotate(65.89)"><tspan x="0" y="0">I</tspan></text>
  <text class="cls-4" transform="translate(-604.68 -1816.43) rotate(71.21)"><tspan x="0" y="0">T</tspan></text>
  <text class="cls-4" transform="translate(-600.97 -1805.52) rotate(77.94)"><tspan x="0" y="0">É</tspan></text>
  <text class="cls-4" transform="translate(-598.8 -1794.8) rotate(82.55)"><tspan x="0" y="0"> </tspan></text>
  <text class="cls-4" transform="translate(-598.22 -1790.34) rotate(85.24)"><tspan x="0" y="0"> </tspan></text>
  <text class="cls-4" transform="translate(-597.84 -1785.9) rotate(87.89)"><tspan x="0" y="0"> </tspan></text>
  <text class="cls-4" transform="translate(-597.66 -1781.43) rotate(90.93)"><tspan x="0" y="0"> </tspan></text>
  <text class="cls-4" transform="translate(-597.71 -1776.9) rotate(93.2)"><tspan x="0" y="0"> </tspan></text>
  <text class="cls-4" transform="translate(-597.96 -1772.43) rotate(95.87)"><tspan x="0" y="0"> </tspan></text>
  <text class="cls-4" transform="translate(-598.19 -1768.07) rotate(101.09)"><tspan x="0" y="0">U</tspan></text>
  <text class="cls-4" transform="translate(-600.65 -1755.39) rotate(108.87)"><tspan x="0" y="0">N</tspan></text>
  <text class="cls-4" transform="translate(-605.05 -1743.1) rotate(114.13)"><tspan x="0" y="0"> </tspan></text>
  <text class="cls-4" transform="translate(-606.7 -1739.04) rotate(118.82)"><tspan x="0" y="0">C</tspan></text>
  <text class="cls-4" transform="translate(-611.96 -1729.32) rotate(125.93)"><tspan x="0" y="0">O</tspan></text>
  <text class="cls-4" transform="translate(-619.33 -1719.08) rotate(133.51)"><tspan x="0" y="0">N</tspan></text>
  <text class="cls-4" transform="translate(-628.14 -1709.84) rotate(140.55)"><tspan x="0" y="0">C</tspan></text>
  <text class="cls-4" transform="translate(-636.71 -1702.77) rotate(147.1)"><tspan x="0" y="0">E</tspan></text>
  <text class="cls-4" transform="translate(-645.74 -1696.82) rotate(154.23)"><tspan x="0" y="0">N</tspan></text>
  <text class="cls-4" transform="translate(-657.38 -1691.23) rotate(161.59)"><tspan x="0" y="0">T</tspan></text>
  <text class="cls-4" transform="translate(-668.3 -1687.54) rotate(168.77)"><tspan x="0" y="0">R</tspan></text>
  <text class="cls-4" transform="translate(-680.38 -1685.17) rotate(175.69)"><tspan x="0" y="0">É</tspan></text>
  <text class="cls-4" transform="translate(-691.25 -1684.44) rotate(-179.07)"><tspan x="0" y="0"> </tspan></text>
  <text class="cls-4" transform="translate(-695.62 -1684.27) rotate(-174.65)"><tspan x="0" y="0">D</tspan></text>
  <text class="cls-4" transform="translate(-708.33 -1685.5) rotate(-167.63)"><tspan x="0" y="0">E</tspan></text>
  <text class="cls-4" transform="translate(-718.96 -1687.95) rotate(-163.01)"><tspan x="0" y="0"> </tspan></text>
  <text class="cls-4" transform="translate(-723.2 -1689.09) rotate(-158.3)"><tspan x="0" y="0">C</tspan></text>
  <text class="cls-4" transform="translate(-733.52 -1693.13) rotate(-151.27)"><tspan x="0" y="0">R</tspan></text>
  <text class="cls-4" transform="translate(-744.27 -1699.05) rotate(-144.37)"><tspan x="0" y="0">É</tspan></text>
  <text class="cls-4" transform="translate(-753.1 -1705.3) rotate(-137.48)"><tspan x="0" y="0">A</tspan></text>
  <text class="cls-4" transform="translate(-760.99 -1712.42) rotate(-131.37)"><tspan x="0" y="0">T</tspan></text>
  <text class="cls-4" transform="translate(-768.6 -1721.22) rotate(-126.11)"><tspan x="0" y="0">I</tspan></text>
  <text class="cls-4" transform="translate(-772.28 -1726.02) rotate(-120.68)"><tspan x="0" y="0">V</tspan></text>
  <text class="cls-4" transform="translate(-778.33 -1736.46) rotate(-115.25)"><tspan x="0" y="0">I</tspan></text>
  <text class="cls-4" transform="translate(-781.03 -1741.86) rotate(-109.91)"><tspan x="0" y="0">T</tspan></text>
  <text class="cls-4" transform="translate(-784.96 -1752.7) rotate(-103.18)"><tspan x="0" y="0">É</tspan></text>
  <g>
    <g>
      <path class="cls-2" d="M148.29,133.22v-3.62h.29c.24,3.4,1.42,4.87,4.17,4.87,3.16,0,4.46-1.91,4.46-3.91,0-2.32-1.98-3.23-4.1-4.22-2.58-1.23-4.2-2.75-4.2-4.97,0-2.41,1.98-4.22,5.36-4.22.87,0,2.39.1,3.38,1.09v2.82h-.29c-.24-2.58-1.3-3.62-3.26-3.62-3.16,0-3.93,1.91-3.93,3.47,0,2.17,1.35,3.31,3.57,4.37,2.08.92,4.78,2.15,4.78,4.68,0,2.75-2.49,4.8-5.98,4.8-1.81,0-3.04-.48-4.25-1.54Z"/>
      <path class="cls-2" d="M166.3,134.31l2.36-.22v-16.41h-3.4c-1.3,0-2.15,1.76-2.56,2.73h-.24l.6-3.02h12.31l.12,3.02h-.24c-.34-.96-1.04-2.73-2.1-2.73h-3.26v16.41l2.39.22v.22h-5.98v-.22Z"/>
      <path class="cls-2" d="M181.21,127.62v-9.8l-1.88-.22v-.22h5.02v.22l-1.91.22v9.72c0,4.39,1.71,6.92,4.51,6.92,3.47,0,5.21-2.82,5.21-6.85v-9.8l-2.39-.22v-.22h4.58v.22l-1.91.22v9.72c0,4.85-2.29,7.21-5.62,7.21s-5.62-2.63-5.62-7.14Z"/>
      <path class="cls-2" d="M198.56,134.31l1.95-.22v-16.29l-1.95-.19v-.22h6.23c4.44,0,7.46,2.63,7.46,8.59s-3.28,8.54-8.25,8.54h-5.43v-.22ZM210.94,125.84c0-5.4-2.22-8.16-6.15-8.16h-3.04v16.55h2.27c4.15,0,6.92-2.53,6.92-8.4Z"/>
      <path class="cls-2" d="M217,134.31l1.88-.22v-16.26l-1.88-.22v-.22h5.02v.22l-1.91.22v16.26l1.91.22v.22h-5.02v-.22Z"/>
      <path class="cls-2" d="M226.74,125.96c0-4.9,2.44-8.81,6.42-8.81s6.51,3.19,6.51,8.81c0,4.95-2.51,8.81-6.42,8.81s-6.51-3.09-6.51-8.81ZM238.37,126.08c0-5.48-2.17-8.64-5.31-8.64-3.4,0-5.02,3.74-5.02,8.4,0,5.43,2.2,8.64,5.36,8.64,3.4,0,4.97-3.76,4.97-8.4Z"/>
    </g>
    <g>
      <path class="cls-1" d="M3.85,5.83c8.56-.68,17.7-1.26,25.21,2.71,5.49,2.9,9.42,7.91,12.5,13.13,8.05,13.66,14.72,27.9,21.51,42.15,4.38,9,12,25.74,16.46,34.51,5.7,10.65,14.26,19.26,25,24.85,2.47,1.28,5.65,2.13,7.97,2.63-2.59.57-3.97.46-6.06.3-9.78-.77-18.46-6.07-25.21-12.8-8.47-8.45-13.85-19.21-18.98-29.83-8.22-17-16.14-34.13-23.77-51.38-2.47-5.59-4.97-11.28-9.04-15.94C23.02,8.8,13.24,7.33,3.85,5.83Z"/>
      <g>
        <path class="cls-1" d="M26.36,106.07s.04-95.31.03-94.43c-.97,0,0,0-1.28,0v94.44c-2.18,1.73,3.53,1.88,1.25,0Z"/>
        <path class="cls-1" d="M29.76,105.88h-8.2l-8.1,1.13c-.1.31-.1.62-.1.93h24.71c0-.31,0-.62.1-.93l-8.41-1.13Z"/>
      </g>
      <g>
        <path class="cls-1" d="M77.25,13.49s-.04,95.31-.03,94.43c.97,0,0,0,1.28,0V13.49c2.18-1.73-3.53-1.88-1.25,0Z"/>
        <path class="cls-1" d="M73.85,13.69h8.2l8.1-1.13c.1-.31.1-.62.1-.93h-24.71c0,.31,0,.62-.1.93l8.41,1.13Z"/>
      </g>
    </g>
    <path class="cls-1" d="M211.13,107.04c0,.3-.1.6-.1.9h-24.42c0-.3,0-.6.1-.9l8-1.1v-40.15l.05-53.56h8.04s.02,51.07.02,51.07v42.64l8.31,1.1Z"/>
    <path class="cls-1" d="M146.08,104.15l.82-9.17.41-.13c6.08,7.44,11.77,9.65,17.79,9.66,9.25.01,11.16-2.79,10.21-8.01-.73-4.04-3.27-7.43-14.33-17.67-5.26-4.73-10.09-9.25-10.24-16.67-.12-9.25,7.67-15.35,18.15-15.72,3.11-.11,8,.18,11.48,1.66l-.75,8.25h-.42c-5.28-5.51-11.98-6.97-15.93-6.97-6.65,0-8.42,2.69-8.27,7.15.19,5.48,5.65,10.09,11.87,15.58,11.47,10.23,13.07,14.4,13.22,18.62.24,9.93-8.87,16.76-20.69,17.18-5.29.18-9.7-1.03-13.32-3.76Z"/>
    <path class="cls-1" d="M248.12,95.72c0-7.19,4.76-14.49,14.64-16.33,6.45-1.2,11.08-1.34,19.39-.77l.03-7.46c0-12.1,1.37-23.52-11.86-23.52s-14.75,11.92-16.59,17.03h-1.14l.1-11.21c4.15-3.43,9.97-6.62,17.54-6.62,13.39,0,20.04,9.36,20.04,24.55v26.49c0,6.17,1.99,7.82,2.7,8.56,0,0,1.56,1.48-1.35,1.48-5.92,0-9.03-4.34-9.14-11.76l-.1-7.42h-.21c-3.95,12.22-11.63,19.18-20.66,19.18-7.16,0-13.39-4.45-13.39-12.22ZM281.34,87.27c.52-1.83.83-4.68.83-8.45-7.06-.23-13.18,1.14-17.23,3.2-6.44,3.08-8.3,8.22-8.3,12.33,0,4.8,2.59,8.56,7.68,8.56,7.47,0,15.16-8.11,17.03-15.64Z"/>
    <path class="cls-1" d="M241.89,107.04c0,.3-.1.6-.1.9h-24.42c0-.3,0-.6.1-.9l8-1.1v-40.15l.05-19.1h8.04s.02,16.61.02,16.61v42.64l8.31,1.1Z"/>
    <path class="cls-1" d="M163.96,38.32c23.48-20.84,44.55,2.49,64.52-4.6,2.52-.88,5.34-3.14,4.26-6.05,0,0,.32-.25.32-.25.53.67.77,1.55.74,2.39-.58,5.93-8.6,8.03-13.55,8.51-13,1.15-25.06-6.05-38.01-5.39-6.38.34-12.56,2.55-18.08,5.73,0,0-.2-.35-.2-.35h0Z"/>
    <circle class="cls-1" cx="229.63" cy="29.71" r="4.23"/>
    <path class="cls-1" d="M94.59,95.72c0-7.19,4.76-14.49,14.64-16.33,6.45-1.2,11.08-1.34,19.39-.77l.03-7.46c0-12.1,1.37-23.52-11.86-23.52s-14.75,11.92-16.59,17.03h-1.14l.1-11.21c4.15-3.43,9.97-6.62,17.54-6.62,13.39,0,20.04,9.36,20.04,24.55v26.49c0,6.17,1.99,7.82,2.7,8.56,0,0,1.56,1.48-1.35,1.48-5.92,0-9.03-4.34-9.14-11.76l-.1-7.42h-.21c-3.95,12.22-11.63,19.18-20.66,19.18-7.16,0-13.39-4.45-13.39-12.22ZM127.81,87.27c.52-1.83.83-4.68.83-8.45-7.06-.23-13.18,1.14-17.23,3.2-6.44,3.08-8.3,8.22-8.3,12.33,0,4.8,2.59,8.56,7.68,8.56,7.47,0,15.16-8.11,17.03-15.64Z"/>
  </g>
</svg>