<?xml version="1.0" encoding="UTF-8"?>
<svg id="Calque_1" data-name="Calque 1" xmlns="http://www.w3.org/2000/svg" viewBox="0 0 176.66 174.63">
  <defs>
    <style>
      .cls-1 {
        stroke-width: 0px;
      }

      .cls-1, .cls-2, .cls-3 {
        fill: #004e56;
      }

      .cls-4 {
        font-size: 18.99px;
      }

      .cls-4, .cls-5 {
        fill: #1d1d1b;
        font-family: Mastro-DisplayRegular, Mastro;
      }

      .cls-6 {
        fill: #fff;
        font-size: 8.68px;
      }

      .cls-6, .cls-3 {
        font-family: Futura-Medium, Futura;
        font-weight: 500;
      }

      .cls-2 {
        stroke: #004e56;
        stroke-miterlimit: 10;
        stroke-width: .5px;
      }

      .cls-3 {
        font-size: 15.21px;
      }

      .cls-5 {
        font-size: 10.14px;
      }
    </style>
  </defs>
  <g>
    <text class="cls-3" transform="translate(-6818.84 407.01) rotate(71.09) scale(.77 1)"><tspan x="0" y="0">D</tspan></text>
    <text class="cls-3" transform="translate(-6815.72 415.9) rotate(66.03) scale(.77 1)"><tspan x="0" y="0">e</tspan></text>
    <text class="cls-3" transform="translate(-6812.71 422.61) rotate(61.21) scale(.77 1)"><tspan x="0" y="0">p</tspan></text>
    <text class="cls-3" transform="translate(-6808.84 429.53) rotate(56.16) scale(.77 1)"><tspan x="0" y="0">u</tspan></text>
    <text class="cls-3" transform="translate(-6804.86 435.34) rotate(52.47) scale(.77 1)"><tspan x="0" y="0">i</tspan></text>
    <text class="cls-3" transform="translate(-6802.76 438.1) rotate(49.28) scale(.77 1)"><tspan x="0" y="0">s</tspan></text>
    <text class="cls-3" transform="translate(-6799.21 442.17) rotate(45.65) scale(.77 1)"><tspan x="0" y="0"> </tspan></text>
    <text class="cls-3" transform="translate(-6796.1 445.41) rotate(40.68) scale(.77 1)"><tspan x="0" y="0">2</tspan></text>
    <text class="cls-3" transform="translate(-6789.62 450.89) rotate(33.54) scale(.77 1)"><tspan x="0" y="0">0</tspan></text>
    <text class="cls-3" transform="translate(-6782.4 455.57) rotate(25.79) scale(.77 1)"><tspan x="0" y="0">2</tspan></text>
    <text class="cls-3" transform="translate(-6774.53 459.26) rotate(17.5) scale(.77 1)"><tspan x="0" y="0">3</tspan></text>
  </g>
  <g>
    <text class="cls-6" transform="translate(-6578.11 294.92) rotate(71.11) scale(.77 1)"><tspan x="0" y="0">D</tspan></text>
    <text class="cls-6" transform="translate(-6576.32 299.99) rotate(66.04) scale(.77 1)"><tspan x="0" y="0">e</tspan></text>
    <text class="cls-6" transform="translate(-6574.62 303.81) rotate(61.25) scale(.77 1)"><tspan x="0" y="0">p</tspan></text>
    <text class="cls-6" transform="translate(-6572.4 307.79) rotate(56.16) scale(.77 1)"><tspan x="0" y="0">u</tspan></text>
    <text class="cls-6" transform="translate(-6570.12 311.11) rotate(52.46) scale(.77 1)"><tspan x="0" y="0">i</tspan></text>
    <text class="cls-6" transform="translate(-6568.92 312.68) rotate(49.29) scale(.77 1)"><tspan x="0" y="0">s</tspan></text>
    <text class="cls-6" transform="translate(-6566.9 315) rotate(45.66) scale(.77 1)"><tspan x="0" y="0"> </tspan></text>
    <text class="cls-6" transform="translate(-6565.11 316.86) rotate(40.66) scale(.77 1)"><tspan x="0" y="0">2</tspan></text>
    <text class="cls-6" transform="translate(-6561.4 320) rotate(33.49) scale(.77 1)"><tspan x="0" y="0">0</tspan></text>
    <text class="cls-6" transform="translate(-6557.28 322.67) rotate(25.74) scale(.77 1)"><tspan x="0" y="0">2</tspan></text>
    <text class="cls-6" transform="translate(-6552.78 324.77) rotate(17.44) scale(.77 1)"><tspan x="0" y="0">3</tspan></text>
  </g>
  <g>
    <text class="cls-3" transform="translate(-1401.31 -1715.24) rotate(71.09) scale(.77 1)"><tspan x="0" y="0">D</tspan></text>
    <text class="cls-3" transform="translate(-1398.18 -1706.35) rotate(66.03) scale(.77 1)"><tspan x="0" y="0">e</tspan></text>
    <text class="cls-3" transform="translate(-1395.17 -1699.64) rotate(61.21) scale(.77 1)"><tspan x="0" y="0">p</tspan></text>
    <text class="cls-3" transform="translate(-1391.31 -1692.71) rotate(56.16) scale(.77 1)"><tspan x="0" y="0">u</tspan></text>
    <text class="cls-3" transform="translate(-1387.33 -1686.91) rotate(52.47) scale(.77 1)"><tspan x="0" y="0">i</tspan></text>
    <text class="cls-3" transform="translate(-1385.22 -1684.15) rotate(49.28) scale(.77 1)"><tspan x="0" y="0">s</tspan></text>
    <text class="cls-3" transform="translate(-1381.68 -1680.08) rotate(45.65) scale(.77 1)"><tspan x="0" y="0"> </tspan></text>
    <text class="cls-3" transform="translate(-1378.57 -1676.84) rotate(40.68) scale(.77 1)"><tspan x="0" y="0">2</tspan></text>
    <text class="cls-3" transform="translate(-1372.09 -1671.36) rotate(33.54) scale(.77 1)"><tspan x="0" y="0">0</tspan></text>
    <text class="cls-3" transform="translate(-1364.87 -1666.68) rotate(25.79) scale(.77 1)"><tspan x="0" y="0">2</tspan></text>
    <text class="cls-3" transform="translate(-1357 -1662.98) rotate(17.5) scale(.77 1)"><tspan x="0" y="0">3</tspan></text>
  </g>
  <text class="cls-5" transform="translate(-120.8 -1559.81) rotate(-23.31)"><tspan x="0" y="0">U</tspan></text>
  <text class="cls-5" transform="translate(-114.49 -1562.55) rotate(-15.57)"><tspan x="0" y="0">N</tspan></text>
  <text class="cls-5" transform="translate(-107.78 -1564.32) rotate(-10.35)"><tspan x="0" y="0"> </tspan></text>
  <text class="cls-5" transform="translate(-105.49 -1564.82) rotate(-5.66)"><tspan x="0" y="0">C</tspan></text>
  <text class="cls-5" transform="translate(-99.64 -1565.44) rotate(1.44)"><tspan x="0" y="0">O</tspan></text>
  <text class="cls-5" transform="translate(-92.92 -1565.3) rotate(8.98)"><tspan x="0" y="0">N</tspan></text>
  <text class="cls-5" transform="translate(-86.17 -1564.21) rotate(16.03)"><tspan x="0" y="0">C</tspan></text>
  <text class="cls-5" transform="translate(-80.49 -1562.59) rotate(22.54)"><tspan x="0" y="0">E</tspan></text>
  <text class="cls-5" transform="translate(-75.16 -1560.43) rotate(29.62)"><tspan x="0" y="0">N</tspan></text>
  <text class="cls-5" transform="translate(-69.16 -1557.01) rotate(36.97)"><tspan x="0" y="0">T</tspan></text>
  <text class="cls-5" transform="translate(-64.24 -1553.34) rotate(44.12)"><tspan x="0" y="0">R</tspan></text>
  <text class="cls-5" transform="translate(-59.54 -1548.77) rotate(51.04)"><tspan x="0" y="0">É</tspan></text>
  <text class="cls-5" transform="translate(-55.93 -1544.21) rotate(55.56)"><tspan x="0" y="0"> </tspan></text>
  <text class="cls-5" transform="translate(-54.52 -1542.34) rotate(60.69)"><tspan x="0" y="0">D</tspan></text>
  <text class="cls-5" transform="translate(-51.2 -1536.4) rotate(67.64)"><tspan x="0" y="0">E</tspan></text>
  <text class="cls-5" transform="translate(-49.04 -1530.98) rotate(72.26)"><tspan x="0" y="0"> </tspan></text>
  <text class="cls-5" transform="translate(-48.26 -1528.8) rotate(76.92)"><tspan x="0" y="0">C</tspan></text>
  <text class="cls-5" transform="translate(-46.89 -1523.05) rotate(83.95)"><tspan x="0" y="0">R</tspan></text>
  <text class="cls-5" transform="translate(-46.21 -1516.54) rotate(90.84)"><tspan x="0" y="0">É</tspan></text>
  <text class="cls-5" transform="translate(-46.26 -1510.78) rotate(97.7)"><tspan x="0" y="0">A</tspan></text>
  <text class="cls-5" transform="translate(-46.97 -1505.14) rotate(103.81)"><tspan x="0" y="0">T</tspan></text>
  <text class="cls-5" transform="translate(-48.52 -1499.12) rotate(109.07)"><tspan x="0" y="0">I</tspan></text>
  <text class="cls-5" transform="translate(-49.5 -1496.04) rotate(114.47)"><tspan x="0" y="0">V</tspan></text>
  <text class="cls-5" transform="translate(-52.22 -1490.21) rotate(119.88)"><tspan x="0" y="0">I</tspan></text>
  <text class="cls-5" transform="translate(-53.75 -1487.4) rotate(125.16)"><tspan x="0" y="0">T</tspan></text>
  <text class="cls-5" transform="translate(-57.3 -1482.36) rotate(131.88)"><tspan x="0" y="0">É</tspan></text>
  <text class="cls-4" transform="translate(-781.91 -1581.02) rotate(-77.78)"><tspan x="0" y="0">U</tspan></text>
  <text class="cls-4" transform="translate(-779.19 -1593.68) rotate(-69.98)"><tspan x="0" y="0">N</tspan></text>
  <text class="cls-4" transform="translate(-774.57 -1605.84) rotate(-64.75)"><tspan x="0" y="0"> </tspan></text>
  <text class="cls-4" transform="translate(-772.82 -1609.89) rotate(-60.06)"><tspan x="0" y="0">C</tspan></text>
  <text class="cls-4" transform="translate(-767.38 -1619.49) rotate(-52.95)"><tspan x="0" y="0">O</tspan></text>
  <text class="cls-4" transform="translate(-759.84 -1629.56) rotate(-45.41)"><tspan x="0" y="0">N</tspan></text>
  <text class="cls-4" transform="translate(-750.82 -1638.66) rotate(-38.33)"><tspan x="0" y="0">C</tspan></text>
  <text class="cls-4" transform="translate(-742.12 -1645.56) rotate(-31.78)"><tspan x="0" y="0">E</tspan></text>
  <text class="cls-4" transform="translate(-733 -1651.32) rotate(-24.66)"><tspan x="0" y="0">N</tspan></text>
  <text class="cls-4" transform="translate(-721.23 -1656.7) rotate(-17.28)"><tspan x="0" y="0">T</tspan></text>
  <text class="cls-4" transform="translate(-710.24 -1660.17) rotate(-10.1)"><tspan x="0" y="0">R</tspan></text>
  <text class="cls-4" transform="translate(-698.12 -1662.3) rotate(-3.2)"><tspan x="0" y="0">É</tspan></text>
  <text class="cls-4" transform="translate(-687.21 -1662.79) rotate(1.31)"><tspan x="0" y="0"> </tspan></text>
  <text class="cls-4" transform="translate(-682.84 -1662.9) rotate(6.48)"><tspan x="0" y="0">D</tspan></text>
  <text class="cls-4" transform="translate(-670.19 -1661.43) rotate(13.49)"><tspan x="0" y="0">E</tspan></text>
  <text class="cls-4" transform="translate(-659.6 -1658.77) rotate(18.12)"><tspan x="0" y="0"> </tspan></text>
  <text class="cls-4" transform="translate(-655.39 -1657.55) rotate(22.82)"><tspan x="0" y="0">C</tspan></text>
  <text class="cls-4" transform="translate(-645.17 -1653.31) rotate(29.83)"><tspan x="0" y="0">R</tspan></text>
  <text class="cls-4" transform="translate(-634.5 -1647.17) rotate(36.75)"><tspan x="0" y="0">É</tspan></text>
  <text class="cls-4" transform="translate(-625.8 -1640.76) rotate(43.63)"><tspan x="0" y="0">A</tspan></text>
  <text class="cls-4" transform="translate(-618.05 -1633.49) rotate(49.74)"><tspan x="0" y="0">T</tspan></text>
  <text class="cls-4" transform="translate(-610.62 -1624.53) rotate(55.01)"><tspan x="0" y="0">I</tspan></text>
  <text class="cls-4" transform="translate(-607.02 -1619.66) rotate(60.45)"><tspan x="0" y="0">V</tspan></text>
  <text class="cls-4" transform="translate(-601.18 -1609.1) rotate(65.89)"><tspan x="0" y="0">I</tspan></text>
  <text class="cls-4" transform="translate(-598.59 -1603.66) rotate(71.21)"><tspan x="0" y="0">T</tspan></text>
  <text class="cls-4" transform="translate(-594.87 -1592.75) rotate(77.94)"><tspan x="0" y="0">É</tspan></text>
  <text class="cls-4" transform="translate(-592.71 -1582.03) rotate(82.55)"><tspan x="0" y="0"> </tspan></text>
  <text class="cls-4" transform="translate(-592.12 -1577.58) rotate(85.24)"><tspan x="0" y="0"> </tspan></text>
  <text class="cls-4" transform="translate(-591.75 -1573.13) rotate(87.89)"><tspan x="0" y="0"> </tspan></text>
  <text class="cls-4" transform="translate(-591.57 -1568.66) rotate(90.93)"><tspan x="0" y="0"> </tspan></text>
  <text class="cls-4" transform="translate(-591.62 -1564.14) rotate(93.2)"><tspan x="0" y="0"> </tspan></text>
  <text class="cls-4" transform="translate(-591.87 -1559.66) rotate(95.87)"><tspan x="0" y="0"> </tspan></text>
  <text class="cls-4" transform="translate(-592.1 -1555.3) rotate(101.09)"><tspan x="0" y="0">U</tspan></text>
  <text class="cls-4" transform="translate(-594.56 -1542.63) rotate(108.87)"><tspan x="0" y="0">N</tspan></text>
  <text class="cls-4" transform="translate(-598.96 -1530.33) rotate(114.13)"><tspan x="0" y="0"> </tspan></text>
  <text class="cls-4" transform="translate(-600.61 -1526.27) rotate(118.82)"><tspan x="0" y="0">C</tspan></text>
  <text class="cls-4" transform="translate(-605.87 -1516.56) rotate(125.93)"><tspan x="0" y="0">O</tspan></text>
  <text class="cls-4" transform="translate(-613.24 -1506.32) rotate(133.51)"><tspan x="0" y="0">N</tspan></text>
  <text class="cls-4" transform="translate(-622.05 -1497.07) rotate(140.55)"><tspan x="0" y="0">C</tspan></text>
  <text class="cls-4" transform="translate(-630.62 -1490) rotate(147.1)"><tspan x="0" y="0">E</tspan></text>
  <text class="cls-4" transform="translate(-639.65 -1484.06) rotate(154.23)"><tspan x="0" y="0">N</tspan></text>
  <text class="cls-4" transform="translate(-651.28 -1478.46) rotate(161.59)"><tspan x="0" y="0">T</tspan></text>
  <text class="cls-4" transform="translate(-662.21 -1474.77) rotate(168.77)"><tspan x="0" y="0">R</tspan></text>
  <text class="cls-4" transform="translate(-674.29 -1472.4) rotate(175.69)"><tspan x="0" y="0">É</tspan></text>
  <text class="cls-4" transform="translate(-685.16 -1471.67) rotate(-179.07)"><tspan x="0" y="0"> </tspan></text>
  <text class="cls-4" transform="translate(-689.52 -1471.51) rotate(-174.65)"><tspan x="0" y="0">D</tspan></text>
  <text class="cls-4" transform="translate(-702.24 -1472.73) rotate(-167.63)"><tspan x="0" y="0">E</tspan></text>
  <text class="cls-4" transform="translate(-712.86 -1475.18) rotate(-163.01)"><tspan x="0" y="0"> </tspan></text>
  <text class="cls-4" transform="translate(-717.11 -1476.32) rotate(-158.3)"><tspan x="0" y="0">C</tspan></text>
  <text class="cls-4" transform="translate(-727.43 -1480.37) rotate(-151.27)"><tspan x="0" y="0">R</tspan></text>
  <text class="cls-4" transform="translate(-738.18 -1486.29) rotate(-144.37)"><tspan x="0" y="0">É</tspan></text>
  <text class="cls-4" transform="translate(-747.01 -1492.53) rotate(-137.48)"><tspan x="0" y="0">A</tspan></text>
  <text class="cls-4" transform="translate(-754.9 -1499.65) rotate(-131.37)"><tspan x="0" y="0">T</tspan></text>
  <text class="cls-4" transform="translate(-762.5 -1508.46) rotate(-126.11)"><tspan x="0" y="0">I</tspan></text>
  <text class="cls-4" transform="translate(-766.19 -1513.25) rotate(-120.68)"><tspan x="0" y="0">V</tspan></text>
  <text class="cls-4" transform="translate(-772.24 -1523.69) rotate(-115.25)"><tspan x="0" y="0">I</tspan></text>
  <text class="cls-4" transform="translate(-774.94 -1529.09) rotate(-109.91)"><tspan x="0" y="0">T</tspan></text>
  <text class="cls-4" transform="translate(-778.87 -1539.93) rotate(-103.18)"><tspan x="0" y="0">É</tspan></text>
  <g>
    <g>
      <path class="cls-2" d="M10.79,67.68c-2.75-.84-4.08-2.96-3.31-5.45.23-.74.59-1.45,1.08-2l2,.79-.03.11c-1.37-.19-2.55.01-2.88,1.1-.55,1.79,1.04,3.22,3.54,3.98,2.69.82,4.79.37,5.33-1.41.22-.71.01-1.93-1.85-2.91l.04-.13,2.1.89c.13.7.1,1.41-.13,2.16-.82,2.67-3.02,3.71-5.88,2.84Z"/>
      <path class="cls-2" d="M13.79,58.48c-2.4-1.1-3.73-3.36-2.73-5.53s3.35-2.78,6-1.57c2.44,1.12,3.7,3.39,2.72,5.52-.98,2.13-3.31,2.8-5.99,1.57ZM16.56,52.81c-2.62-1.2-4.79-1.03-5.4.29-.66,1.45.8,2.9,3.11,3.96,2.57,1.18,4.8,1.02,5.42-.33.66-1.45-.79-2.85-3.12-3.92Z"/>
      <path class="cls-2" d="M22.17,51.37c.23-.41.23-.87.13-1.2l-7.05-4.51-.68.84-.11-.07,1.19-1.86,8.38-.33h.22s-5.38-3.45-5.38-3.45c-.4.01-.77.25-1.09.7-.03-.02-.08-.05-.1-.08l1.28-2,.1.08c-.23.41-.21.84-.11,1.17l7.26,4.65-.08.13-9.95.48h-.25s6.45,4.13,6.45,4.13c.37-.04.78-.28,1.11-.75.03.02.08.05.1.08l-1.33,2.08s-.07-.06-.1-.08Z"/>
      <path class="cls-2" d="M24.51,39.75c-2.2-1.85-2.59-4.32-.91-6.31.5-.59,1.11-1.1,1.77-1.41l1.53,1.51-.08.09c-1.18-.71-2.35-.99-3.08-.12-1.2,1.43-.31,3.37,1.69,5.05,2.15,1.81,4.25,2.22,5.45.8.48-.57.77-1.76-.56-3.39l.08-.1,1.58,1.64c-.15.69-.46,1.34-.97,1.94-1.79,2.13-4.24,2.23-6.52.31Z"/>
      <path class="cls-2" d="M33.82,35.93l.7-.84-5.95-6.4-.89.63-.09-.1,4.59-4.26,1.53,1.36-.1.09c-.74-.41-1.98-.73-2.71-.05l-1.41,1.31,2.88,3.1,1.49-1.39c.41-.38.02-1.27-.26-1.76l.09-.08,2.09,2.25-.09.08c-.46-.3-1.31-.76-1.73-.38l-1.49,1.39,3.12,3.35,1.52-1.42c.79-.73.57-2.03.15-2.96l.11-.1,1.36,1.77-4.83,4.49-.09-.1Z"/>
      <path class="cls-2" d="M40.42,29.93c.37-.29.54-.72.58-1.07l-4.85-6.82-.94.52-.07-.11,1.8-1.28,7.9,2.83.2.08-3.7-5.21c-.37-.14-.81-.05-1.27.24-.02-.03-.05-.07-.06-.11l1.94-1.38.07.11c-.37.29-.51.7-.54,1.04l4.99,7.03-.13.09-9.4-3.28-.23-.1,4.44,6.25c.36.1.83.04,1.31-.27.02.03.05.07.06.11l-2.02,1.43s-.04-.08-.07-.11Z"/>
      <path class="cls-2" d="M50.55,23.24l1.12-.73-4.11-7.86-1.09.57c-.9.51-.97,1.84-.87,2.74l-.12.06-.68-2.11,6.51-3.41,1.12,1.88-.12.06c-.61-.63-1.69-1.34-2.51-.98l-1.04.55,4.12,7.86,1.25-.51.06.12-3.6,1.89s-.03-.09-.05-.12Z"/>
      <path class="cls-2" d="M61.53,16.48l-2.12-1.69-1.13.41,1.33,3.65,1.15-.28.04.12-3.36,1.22-.04-.12c.33-.16.65-.32.95-.49l-3.01-8.25-1.06.26-.05-.12,3.25-1.18c2.34-.85,3.99-.37,4.44.86.51,1.39-.57,2.94-2.27,3.78v.02c.78-.21,1.5-.08,2.81.85,1.2.76,1.84,1.64,2.94,1.35v.14c-.29.22-.65.38-.85.45-1.29.47-2.11-.24-3.03-.98ZM60.53,11.37c-.42-1.16-1.45-1.77-2.95-1.22l-1.01.37,1.65,4.54,1.12-.41c1.23-.45,1.7-1.87,1.19-3.27Z"/>
      <path class="cls-2" d="M66.83,16.54l1.03-.38-1.9-8.52-1.09.1-.03-.13,6.11-1.36.64,1.95-.13.03c-.43-.72-1.34-1.63-2.31-1.41l-1.88.42.92,4.13,1.99-.44c.55-.12.66-1.08.66-1.65l.11-.03.67,3-.11.02c-.25-.49-.75-1.32-1.3-1.2l-1.99.44,1,4.47,2.03-.45c1.05-.23,1.52-1.46,1.62-2.48l.14-.03.28,2.21-6.43,1.43-.03-.13ZM67.59,6.19l1.2-2.22.95.65.03.15-2.05,1.57-.11-.03-.03-.11Z"/>
      <path class="cls-2" d="M80.11,14.17l1.07-.15-.22-8.79-1.09-.09s0-.09.01-.13l3.71-.09c2.67-.07,4.43,1.46,4.51,4.49.08,3.09-1.82,4.73-4.56,4.8l-3.44.09s0-.09,0-.13ZM86.64,9.45c-.07-2.65-1.07-4.42-3.04-4.37l-1.28.03.23,8.97,1.01-.03c2.08-.05,3.16-1.77,3.09-4.61Z"/>
      <path class="cls-2" d="M90.38,14.08l1.09-.03.9-8.69-1.07-.25v-.13s6.24.64,6.24.64v2.05s-.14-.01-.14-.01c-.18-.82-.76-1.97-1.75-2.07l-1.91-.2-.44,4.21,2.03.21c.56.06.97-.82,1.15-1.35h.12s-.32,3.07-.32,3.07h-.12c-.07-.56-.29-1.5-.85-1.56l-2.03-.21-.47,4.55,2.07.21c1.07.11,1.91-.91,2.32-1.84h.14s-.44,2.2-.44,2.2l-6.55-.68v-.13Z"/>
      <path class="cls-2" d="M105.23,11.79c.82-2.76,2.93-4.1,5.42-3.36.74.22,1.45.58,2,1.06l-.77,2.01-.11-.03c.17-1.37-.03-2.55-1.13-2.87-1.79-.53-3.21,1.07-3.96,3.57-.8,2.7-.33,4.79,1.45,5.32.72.21,1.93,0,2.89-1.87l.13.04-.87,2.1c-.7.14-1.41.11-2.16-.11-2.67-.79-3.74-2.99-2.89-5.85Z"/>
      <path class="cls-2" d="M117.71,19.27l-.35-2.69-1.1-.49-1.58,3.54,1.02.6-.05.12-3.26-1.46.05-.12c.35.11.69.22,1.02.31l3.58-8.01-.94-.55.05-.12,3.15,1.41c2.27,1.01,3.12,2.51,2.58,3.7-.6,1.35-2.45,1.71-4.26,1.13v.02c.69.38,1.11.97,1.41,2.55.33,1.38.18,2.46,1.17,3.02l-.09.1c-.37-.05-.73-.18-.92-.27-1.25-.56-1.35-1.63-1.49-2.81ZM120.54,14.91c.5-1.12.19-2.28-1.27-2.93l-.98-.44-1.97,4.4,1.09.49c1.19.53,2.52-.16,3.13-1.52Z"/>
      <path class="cls-2" d="M121.48,23l1,.44,4.57-7.45-.85-.69.07-.11,5.34,3.27-.9,1.84-.11-.07c.19-.82.17-2.11-.68-2.63l-1.64-1-2.21,3.61,1.74,1.07c.48.29,1.23-.32,1.62-.72l.1.06-1.61,2.62-.1-.06c.17-.53.38-1.47-.1-1.76l-1.74-1.07-2.39,3.9,1.77,1.09c.91.56,2.11,0,2.89-.66l.12.08-1.34,1.79-5.62-3.44.07-.11ZM129.23,16.09l2.41-.76.23,1.12-.08.13-2.56-.3-.06-.1.06-.1Z"/>
      <path class="cls-2" d="M128.53,27.34c.37.27.81.31,1.36.17l7.57-4.74.88.59-3.28,9.07.71.74-.08.1-2.78-2.24.08-.1.94.59,1.06-2.84-2.89-2.33-2.06,1.28c-.13.4-.04.86.42,1.27l-.08.1-1.94-1.56.08-.1ZM135.05,28.52l1.83-4.89.13-.33-.02-.02-.3.18-4.45,2.8,2.81,2.26Z"/>
      <path class="cls-2" d="M137.16,34.66l1.03.86,6.33-6.21-.86-.88c-.75-.71-2.04-.4-2.88-.04l-.09-.09,1.82-1.26,5.15,5.25-1.48,1.61-.09-.09c.42-.76.8-2.01.21-2.68l-.82-.84-6.33,6.21.85,1.05-.09.09-2.85-2.9s.07-.05.1-.08Z"/>
      <path class="cls-2" d="M142.47,40.38l.75.74,6.85-5.46-.55-.9.1-.08,2.18,2.73-.1.08-.77-.76-6.85,5.46.57.92-.1.08-2.18-2.73.1-.08Z"/>
      <path class="cls-2" d="M153.23,39.37l.12-.06,1.91,3.01-.11.07-.71-.87-5.45,6.79v.02s7.99-2.06,7.99-2.06c.16-.3.14-.73-.2-1.31l.11-.07,1.33,2.1-.11.07c-.25-.34-.56-.56-1-.62l-8.79,2.25-.64-.85,5.99-7.55-.44-.93Z"/>
      <path class="cls-2" d="M151.14,53.35l.58.88,7.85-3.88-.35-1,.12-.06,1.55,3.13-.12.06-.59-.9-7.85,3.88.36,1.02-.12.06-1.55-3.13.12-.06Z"/>
      <path class="cls-2" d="M154.27,60.14l.59,1.21,8.32-3.08-.43-1.15c-.39-.96-1.7-1.2-2.61-1.21l-.05-.12,2.18-.4,2.55,6.89-2.01.87-.05-.12c.7-.52,1.55-1.51,1.29-2.36l-.41-1.1-8.32,3.08.34,1.31-.12.05-1.41-3.82s.09-.02.13-.03Z"/>
      <path class="cls-2" d="M156.8,67.4l.38,1.03,8.51-1.97-.1-1.09.13-.03,1.41,6.1-1.94.65-.03-.13c.72-.43,1.62-1.35,1.4-2.32l-.43-1.87-4.13.96.46,1.99c.13.55,1.09.65,1.65.65l.03.11-3,.69-.03-.11c.49-.25,1.31-.76,1.19-1.31l-.46-1.99-4.46,1.03.47,2.03c.24,1.04,1.48,1.51,2.49,1.6l.03.14-2.21.3-1.49-6.42.13-.03ZM167.16,68.08l2.24,1.19-.64.95-.15.04-1.59-2.04.03-.11.11-.03Z"/>
    </g>
    <g>
      <path class="cls-2" d="M165.87,106.9c2.75.84,4.08,2.95,3.32,5.44-.22.74-.59,1.45-1.07,2l-2-.79.03-.11c1.37.18,2.55-.02,2.88-1.11.55-1.79-1.04-3.22-3.55-3.98-2.69-.82-4.78-.36-5.33,1.41-.22.71-.01,1.93,1.85,2.9l-.04.13-2.1-.89c-.13-.7-.1-1.41.13-2.16.81-2.67,3.02-3.72,5.87-2.85Z"/>
      <path class="cls-2" d="M162.87,116.11c2.4,1.1,3.73,3.36,2.73,5.53s-3.35,2.78-6,1.57c-2.44-1.12-3.7-3.39-2.72-5.52.98-2.13,3.31-2.8,5.99-1.57ZM160.1,121.78c2.62,1.2,4.79,1.03,5.4-.29.66-1.45-.8-2.9-3.11-3.96-2.57-1.18-4.8-1.02-5.42.33-.66,1.45.79,2.85,3.12,3.92Z"/>
      <path class="cls-2" d="M154.5,123.23c-.23.41-.23.88-.13,1.2l7.06,4.5.68-.84.11.07-1.19,1.86-8.38.34h-.22s5.39,3.44,5.39,3.44c.39-.01.77-.25,1.09-.7.03.02.08.05.1.08l-1.28,2.01-.1-.08c.23-.41.21-.84.11-1.17l-7.27-4.64.08-.13,9.95-.49h.25s-6.46-4.12-6.46-4.12c-.37.04-.78.28-1.11.75-.03-.02-.08-.05-.1-.08l1.33-2.08s.07.06.1.08Z"/>
      <path class="cls-2" d="M152.17,134.85c2.2,1.85,2.59,4.32.92,6.31-.5.59-1.11,1.1-1.77,1.42l-1.53-1.51.08-.09c1.18.71,2.35.99,3.08.11,1.2-1.43.3-3.37-1.7-5.05-2.15-1.81-4.26-2.21-5.46-.79-.48.57-.77,1.77.56,3.4l-.08.1-1.58-1.64c.15-.69.46-1.34.97-1.94,1.79-2.13,4.24-2.23,6.52-.31Z"/>
      <path class="cls-2" d="M142.86,138.67l-.7.84,5.95,6.4.89-.63.09.1-4.59,4.26-1.53-1.36.1-.09c.74.41,1.98.73,2.71.05l1.41-1.31-2.88-3.1-1.49,1.39c-.41.38-.02,1.27.26,1.76l-.09.08-2.09-2.25.09-.08c.46.3,1.31.76,1.73.38l1.49-1.39-3.12-3.35-1.52,1.42c-.79.73-.57,2.03-.15,2.96l-.11.1-1.36-1.77,4.83-4.49.09.1Z"/>
      <path class="cls-2" d="M136.27,144.68c-.37.29-.54.72-.57,1.07l4.86,6.82.94-.53.08.11-1.8,1.28-7.9-2.83-.2-.08,3.71,5.21c.37.14.81.05,1.27-.25.02.03.05.07.06.11l-1.94,1.38-.07-.11c.37-.3.51-.7.54-1.04l-5-7.03.13-.09,9.41,3.28.23.09-4.45-6.25c-.36-.1-.83-.04-1.31.28-.02-.03-.05-.07-.06-.11l2.02-1.43s.04.08.07.11Z"/>
      <path class="cls-2" d="M126.15,151.37l-1.12.74,4.12,7.85,1.09-.57c.9-.52.97-1.84.86-2.74l.12-.06.68,2.11-6.5,3.42-1.12-1.88.12-.06c.61.63,1.69,1.34,2.51.97l1.04-.55-4.12-7.85-1.25.51-.06-.12,3.6-1.89s.03.09.05.12Z"/>
      <path class="cls-2" d="M115.18,158.14l2.12,1.69,1.13-.41-1.33-3.65-1.15.28-.04-.12,3.35-1.22.04.12c-.33.16-.65.32-.95.49l3.01,8.24,1.06-.26.04.12-3.24,1.18c-2.33.85-3.98.37-4.43-.86-.51-1.39.57-2.94,2.27-3.78v-.02c-.78.21-1.5.08-2.81-.84-1.2-.76-1.84-1.64-2.94-1.35v-.14c.29-.22.65-.38.84-.45,1.29-.47,2.1.23,3.03.98ZM116.18,163.25c.42,1.15,1.45,1.77,2.95,1.22l1.01-.37-1.65-4.53-1.12.41c-1.23.45-1.7,1.87-1.19,3.27Z"/>
      <path class="cls-2" d="M109.87,158.09l-1.03.38,1.9,8.52,1.09-.1.03.13-6.11,1.36-.64-1.95.13-.03c.43.72,1.34,1.63,2.31,1.41l1.88-.42-.92-4.13-1.99.44c-.55.12-.66,1.08-.66,1.65l-.11.03-.67-3,.11-.02c.25.49.75,1.32,1.3,1.2l1.99-.44-1-4.47-2.03.45c-1.05.23-1.52,1.46-1.62,2.48l-.14.03-.28-2.21,6.43-1.43.03.13ZM109.11,168.44l-1.2,2.22-.95-.65-.03-.15,2.05-1.57.11.03.03.11Z"/>
      <path class="cls-2" d="M96.59,160.47l-1.07.15.23,8.79,1.09.09s0,.09-.01.13l-3.71.1c-2.67.07-4.44-1.45-4.52-4.49-.08-3.09,1.81-4.73,4.56-4.81l3.44-.09s0,.09,0,.13ZM90.07,165.19c.07,2.66,1.07,4.42,3.05,4.37l1.28-.03-.24-8.97-1.01.03c-2.08.05-3.16,1.77-3.08,4.61Z"/>
      <path class="cls-2" d="M86.32,160.56l-1.09.03-.89,8.69,1.06.25v.13s-6.24-.64-6.24-.64v-2.05s.14.01.14.01c.18.82.76,1.97,1.75,2.07l1.91.2.43-4.21-2.03-.21c-.56-.06-.96.82-1.15,1.35h-.12s.31-3.07.31-3.07h.12c.07.56.29,1.5.85,1.56l2.03.21.47-4.55-2.07-.21c-1.07-.11-1.91.91-2.32,1.84h-.14s.43-2.2.43-2.2l6.55.67v.13Z"/>
      <path class="cls-2" d="M71.48,162.86c-.82,2.76-2.92,4.1-5.42,3.36-.74-.22-1.45-.58-2.01-1.06l.77-2.01.11.03c-.17,1.37.04,2.55,1.13,2.87,1.79.53,3.21-1.07,3.95-3.58.8-2.7.33-4.79-1.45-5.31-.71-.21-1.92,0-2.89,1.87l-.12-.04.87-2.1c.7-.14,1.41-.11,2.16.11,2.67.79,3.74,2.99,2.89,5.85Z"/>
      <path class="cls-2" d="M58.98,155.4l.35,2.69,1.1.49,1.58-3.55-1.02-.6.05-.12,3.26,1.46-.05.12c-.35-.11-.69-.22-1.02-.31l-3.58,8.02.94.55-.05.12-3.15-1.41c-2.27-1.01-3.12-2.51-2.59-3.71.6-1.35,2.46-1.71,4.26-1.14v-.02c-.69-.38-1.12-.98-1.41-2.56-.33-1.38-.18-2.46-1.18-3.02l.09-.1c.37.05.73.18.92.27,1.25.56,1.35,1.63,1.5,2.82ZM56.15,159.76c-.5,1.12-.19,2.28,1.27,2.93l.98.44,1.97-4.41-1.09-.49c-1.19-.53-2.52.16-3.13,1.53Z"/>
      <path class="cls-2" d="M47.47,158.58l-2.41.76-.23-1.12.08-.13,2.56.3.06.1-.06.1ZM55.21,151.67l-1-.44-4.56,7.45.85.69-.07.11-5.34-3.27.9-1.84.11.07c-.19.82-.17,2.1.68,2.62l1.64,1,2.21-3.61-1.74-1.06c-.48-.29-1.22.32-1.62.72l-.1-.06,1.6-2.62.1.06c-.17.53-.38,1.47.1,1.76l1.74,1.06,2.39-3.9-1.77-1.08c-.92-.56-2.11,0-2.89.66l-.12-.07,1.34-1.79,5.62,3.44-.07.11Z"/>
      <path class="cls-2" d="M48.16,147.34c-.37-.27-.81-.31-1.36-.17l-7.56,4.74-.88-.59,3.27-9.07-.71-.74.08-.1,2.78,2.24-.08.1-.94-.59-1.06,2.84,2.89,2.33,2.06-1.28c.13-.4.04-.86-.43-1.27l.08-.1,1.94,1.56-.08.1ZM41.65,146.16l-1.82,4.89-.13.33.02.02.3-.18,4.45-2.8-2.81-2.26Z"/>
      <path class="cls-2" d="M39.52,140.02l-1.03-.86-6.33,6.21.86.88c.75.71,2.04.4,2.88.04l.09.09-1.82,1.26-5.15-5.25,1.48-1.61.09.09c-.42.76-.8,2.01-.21,2.68l.82.84,6.33-6.21-.85-1.05.09-.09,2.85,2.9s-.07.05-.1.08Z"/>
      <path class="cls-2" d="M34.21,134.31l-.75-.74-6.85,5.46.55.9-.1.08-2.18-2.73.1-.08.77.76,6.85-5.46-.57-.92.1-.08,2.18,2.73-.1.08Z"/>
      <path class="cls-2" d="M23.45,135.32l-.12.06-1.91-3.01.11-.07.71.87,5.45-6.79v-.02s-7.99,2.06-7.99,2.06c-.16.3-.14.73.2,1.31l-.11.07-1.33-2.1.11-.07c.25.34.56.56,1,.62l8.79-2.25.64.85-5.99,7.55.44.93Z"/>
      <path class="cls-2" d="M25.53,121.35l-.58-.88-7.85,3.89.35,1-.12.06-1.55-3.13.12-.06.59.9,7.85-3.89-.36-1.02.12-.06,1.55,3.13-.12.06Z"/>
      <path class="cls-2" d="M22.39,114.56l-.59-1.21-8.32,3.08.43,1.15c.39.96,1.7,1.2,2.61,1.21l.05.12-2.18.4-2.55-6.89,2.01-.87.05.12c-.7.52-1.55,1.51-1.29,2.36l.41,1.1,8.32-3.08-.34-1.31.12-.05,1.41,3.82s-.09.02-.13.03Z"/>
      <path class="cls-2" d="M9.5,106.63l-2.24-1.19.64-.95.15-.04,1.59,2.04-.03.11-.11.03ZM19.86,107.3l-.39-1.03-8.51,1.98.11,1.09-.13.03-1.42-6.1,1.94-.65.03.13c-.72.44-1.62,1.36-1.39,2.33l.44,1.87,4.13-.96-.46-1.99c-.13-.55-1.09-.65-1.66-.65l-.03-.11,2.99-.7.03.11c-.49.25-1.31.76-1.19,1.31l.46,1.99,4.46-1.04-.47-2.03c-.24-1.04-1.48-1.51-2.49-1.6l-.03-.14,2.21-.3,1.49,6.42-.13.03Z"/>
    </g>
    <g>
      <g>
        <path class="cls-1" d="M133.42,125.03c-5.2.25-10.75.47-15.32-1.01-3.34-1.08-5.72-2.95-7.59-4.89-4.89-5.09-8.94-10.39-13.07-15.69-2.66-3.35-7.29-9.58-10-12.85-3.46-3.96-8.66-7.17-15.19-9.25-1.5-.48-3.43-.79-4.84-.98,1.57-.21,2.41-.17,3.68-.11,5.94.29,11.22,2.26,15.32,4.77,5.14,3.15,8.41,7.15,11.53,11.11,4.99,6.33,9.81,12.71,14.44,19.13,1.5,2.08,3.02,4.2,5.49,5.93,3.9,2.74,9.84,3.29,15.55,3.85Z"/>
        <g>
          <path class="cls-1" d="M119.74,87.72s-.02,35.49-.02,35.16c.59,0,0,0,.78,0v-35.16c1.32-.65-2.14-.7-.76,0Z"/>
          <path class="cls-1" d="M117.67,87.79h4.98l4.92-.42c.06-.11.06-.23.06-.34h-15.01c0,.11,0,.23-.06.34l5.11.42Z"/>
        </g>
        <g>
          <path class="cls-1" d="M88.82,122.18s.02-35.49.02-35.16c-.59,0,0,0-.78,0v35.16c-1.32.65,2.14.7.76,0Z"/>
          <path class="cls-1" d="M90.89,122.11h-4.98l-4.92.42c-.06.11-.06.23-.06.34h15.01c0-.11,0-.23.06-.34l-5.11-.42Z"/>
        </g>
      </g>
      <g>
        <path class="cls-1" d="M43.24,125.03c5.2.25,10.75.47,15.32-1.01,3.34-1.08,5.72-2.95,7.59-4.89,4.89-5.09,8.94-10.39,13.07-15.69,2.66-3.35,7.29-9.58,10-12.85,3.46-3.96,8.66-7.17,15.19-9.25,1.5-.48,3.43-.79,4.84-.98-1.57-.21-2.41-.17-3.68-.11-5.94.29-11.22,2.26-15.32,4.77-5.14,3.15-8.41,7.15-11.53,11.11-4.99,6.33-9.81,12.71-14.44,19.13-1.5,2.08-3.02,4.2-5.49,5.93-3.9,2.74-9.84,3.29-15.55,3.85Z"/>
        <g>
          <path class="cls-1" d="M56.92,87.72s.02,35.49.02,35.16c-.59,0,0,0-.78,0v-35.16c-1.32-.65,2.14-.7.76,0Z"/>
          <path class="cls-1" d="M58.98,87.79h-4.98l-4.92-.42c-.06-.11-.06-.23-.06-.34h15.01c0,.11,0,.23.06.34l-5.11.42Z"/>
        </g>
        <g>
          <path class="cls-1" d="M87.83,122.18s-.02-35.49-.02-35.16c.59,0,0,0,.78,0v35.16c1.32.65-2.14.7-.76,0Z"/>
          <path class="cls-1" d="M85.77,122.11h4.98l4.92.42c.06.11.06.23.06.34h-15.01c0-.11,0-.23-.06-.34l5.11-.42Z"/>
        </g>
      </g>
      <g>
        <path class="cls-1" d="M133.42,49.42c-5.2-.25-10.75-.47-15.32,1.01-3.34,1.08-5.72,2.95-7.59,4.89-4.89,5.09-8.94,10.39-13.07,15.69-2.66,3.35-7.29,9.58-10,12.85-3.46,3.96-8.66,7.17-15.19,9.25-1.5.48-3.43.79-4.84.98,1.57.21,2.41.17,3.68.11,5.94-.29,11.22-2.26,15.32-4.77,5.14-3.15,8.41-7.15,11.53-11.11,4.99-6.33,9.81-12.71,14.44-19.13,1.5-2.08,3.02-4.2,5.49-5.93,3.9-2.74,9.84-3.29,15.55-3.85Z"/>
        <g>
          <path class="cls-1" d="M119.74,86.73s-.02-35.49-.02-35.16c.59,0,0,0,.78,0v35.16c1.32.65-2.14.7-.76,0Z"/>
          <path class="cls-1" d="M117.67,86.66h4.98l4.92.42c.06.11.06.23.06.34h-15.01c0-.11,0-.23-.06-.34l5.11-.42Z"/>
        </g>
        <g>
          <path class="cls-1" d="M88.82,52.26s.02,35.49.02,35.16c-.59,0,0,0-.78,0v-35.16c-1.32-.65,2.14-.7.76,0Z"/>
          <path class="cls-1" d="M90.89,52.33h-4.98l-4.92-.42c-.06-.11-.06-.23-.06-.34h15.01c0,.11,0,.23.06.34l-5.11.42Z"/>
        </g>
      </g>
      <g>
        <path class="cls-1" d="M43.24,49.42c5.2-.25,10.75-.47,15.32,1.01,3.34,1.08,5.72,2.95,7.59,4.89,4.89,5.09,8.94,10.39,13.07,15.69,2.66,3.35,7.29,9.58,10,12.85,3.46,3.96,8.66,7.17,15.19,9.25,1.5.48,3.43.79,4.84.98-1.57.21-2.41.17-3.68.11-5.94-.29-11.22-2.26-15.32-4.77-5.14-3.15-8.41-7.15-11.53-11.11-4.99-6.33-9.81-12.71-14.44-19.13-1.5-2.08-3.02-4.2-5.49-5.93-3.9-2.74-9.84-3.29-15.55-3.85Z"/>
        <g>
          <path class="cls-1" d="M56.92,86.73s.02-35.49.02-35.16c-.59,0,0,0-.78,0v35.16c-1.32.65,2.14.7.76,0Z"/>
          <path class="cls-1" d="M58.98,86.66h-4.98l-4.92.42c-.06.11-.06.23-.06.34h15.01c0-.11,0-.23.06-.34l-5.11-.42Z"/>
        </g>
        <g>
          <path class="cls-1" d="M87.83,52.26s-.02,35.49-.02,35.16c.59,0,0,0,.78,0v-35.16c1.32-.65-2.14-.7-.76,0Z"/>
          <path class="cls-1" d="M85.77,52.33h4.98l4.92-.42c.06-.11.06-.23.06-.34h-15.01c0,.11,0,.23-.06.34l5.11.42Z"/>
        </g>
      </g>
    </g>
  </g>
</svg>